<?xml version="1.0" encoding="utf-8"?>
<!-- Generator: Adobe Illustrator 16.0.3, SVG Export Plug-In . SVG Version: 6.00 Build 0)  -->
<!DOCTYPE svg PUBLIC "-//W3C//DTD SVG 1.1//EN" "http://www.w3.org/Graphics/SVG/1.1/DTD/svg11.dtd">
<svg version="1.1"
	 id="svg81711" xmlns:svg="http://www.w3.org/2000/svg" xmlns:rdf="http://www.w3.org/1999/02/22-rdf-syntax-ns#" xmlns:inkscape="http://www.inkscape.org/namespaces/inkscape" xmlns:sodipodi="http://sodipodi.sourceforge.net/DTD/sodipodi-0.dtd" xmlns:cc="http://creativecommons.org/ns#" xmlns:dc="http://purl.org/dc/elements/1.1/" inkscape:version="0.92.0 r15299" sodipodi:docname="ipsen.svg"
	 xmlns="http://www.w3.org/2000/svg" xmlns:xlink="http://www.w3.org/1999/xlink" x="0px" y="0px" width="800px" height="400px"
	 viewBox="0 0 800 400" enable-background="new 0 0 800 400" xml:space="preserve">
<g id="logo">
	<path fill="#FF6600" d="M142.36,112.661c-48.234-0.012-87.347,39.083-87.359,87.32c-0.011,48.234,39.083,87.347,87.319,87.358
		c48.234,0.012,87.347-39.081,87.359-87.318c0-0.007,0-0.014,0-0.019C229.679,151.772,190.588,112.674,142.36,112.661z
		 M147.456,243.661c-6.686-0.179-12.641-4.28-15.188-10.466c-4.308-10.36-10.795-3.212-10.795-3.212
		c-5.291,5.13-13.74,4.996-18.87-0.298c-4.585-4.734-5.028-12.109-1.042-17.357c2.258-2.757,7.667-8.455,0.559-13.448
		c-3.792-2.896-4.519-8.317-1.622-12.112c2.896-3.792,8.319-4.519,12.111-1.62c2.202,1.679,3.463,4.313,3.393,7.082
		c-0.059,2.072-0.87,4.054-2.278,5.572l-0.249,0.249l-0.23,0.27c-1.345,1.554-4.599,6.217,2.942,9.242
		c3.43,1.035,6.284,3.433,7.897,6.631c3.667,7.896,8.866,3.771,10.877,1.679c0.206-0.25,0.436-0.498,0.662-0.704l0.209-0.271
		c6.547-6.658,17.254-6.744,23.91-0.194c6.658,6.548,6.744,17.253,0.197,23.909C156.657,241.951,152.137,243.777,147.456,243.661z
		 M177.276,204.889c-4.784,0-8.663-3.876-8.663-8.659l0,0c-0.011-1.179,0.229-2.344,0.706-3.421c3.75-8.183-3.274-8.764-3.274-8.764
		c-3.165-0.499-5.911-2.458-7.418-5.283c-3.047-6.217-9.014-1.948-11.583,0.372l-0.643,0.602c-2.447,2.193-5.623,3.397-8.91,3.377
		c-7.381,0.025-13.386-5.939-13.41-13.319c-0.024-7.381,5.939-13.388,13.321-13.412c4.905-0.017,9.425,2.658,11.774,6.963
		c4.437,8.704,9.989,4.144,11.813,2.673c1.855-1.586,4.211-2.466,6.651-2.487c5.722,0,10.361,4.64,10.361,10.36
		c-0.017,2.051-0.63,4.054-1.761,5.762c-3.668,6.859,2.777,7.874,4.497,8.661c4.371,1.942,6.341,7.06,4.398,11.432
		C183.752,202.854,180.679,204.87,177.276,204.889z"/>
</g>
<g>
	<path fill="#333333" d="M329.614,202.052c-5.403-4.419-11.797-7.464-18.635-8.884c-7.661-1.884-12.61-3.518-14.661-4.865
		c-1.739-0.999-2.798-2.861-2.773-4.865c-0.074-1.932,0.772-3.783,2.28-4.991c1.905-1.399,4.242-2.086,6.604-1.947
		c7.102,0.127,13.993,2.44,19.731,6.626c1.514,1.028,3.567,0.637,4.599-0.869l6.73-9.711c1.023-1.443,0.72-3.438-0.685-4.515
		c-3.938-2.948-8.317-5.247-12.982-6.812c-5.41-1.905-11.101-2.899-16.836-2.94c-7.74-0.256-15.351,2.059-21.636,6.583
		c-5.884,4.459-9.193,11.53-8.845,18.907c0,8.096,2.362,14.163,7.042,17.992c4.678,3.831,11.761,6.79,21.454,9.112
		c4.133,0.785,8.121,2.225,11.801,4.266c1.682,1.121,2.668,3.03,2.608,5.053c0.081,2.005-0.854,3.918-2.483,5.091
		c-2.159,1.473-4.739,2.198-7.352,2.071c-6.77,0-14.224-3.333-22.198-9.916c-0.688-0.583-1.586-0.858-2.484-0.768
		c-0.877,0.084-1.682,0.516-2.236,1.199l-8.076,9.9c-1.128,1.391-0.963,3.424,0.371,4.617c9.392,8.492,21.588,13.214,34.251,13.251
		c9.233,0,16.812-2.403,22.529-7.122c5.655-4.561,8.866-11.498,8.675-18.762C336.428,212.012,334.046,206.089,329.614,202.052z
		 M648.557,160.659c0-1.315-1.068-2.381-2.382-2.381h-17.973c-1.314,0-2.382,1.065-2.382,2.381v82.515
		c0,1.314,1.067,2.384,2.382,2.384h17.973c1.313,0,2.382-1.069,2.382-2.384V160.659L648.557,160.659z M434.639,160.866
		c0.056-1.484,1.306-2.644,2.79-2.587c0.008,0,0.016,0,0.024,0h20.333c1.367-0.064,2.569,0.892,2.82,2.236l15.982,53.359
		l16.111-53.359c0.353-1.347,1.591-2.273,2.981-2.236h20.103c1.478,0.012,2.715,1.122,2.881,2.587
		c3.563,35.78,4.618,44.126,8.407,82.103c0.234,1.188-0.537,2.341-1.731,2.577c-0.262,0.051-0.53,0.055-0.797,0.012h-16.565
		c-1.346,0.195-2.596-0.737-2.794-2.084c-0.024-0.169-0.032-0.337-0.021-0.505l-5.24-45.349l-13.229,45.554
		c-0.17,1.182-1.117,2.099-2.302,2.237h-15.445c-1.222-0.096-2.212-1.024-2.381-2.237L453.38,197.62l-5.117,45.349
		c0.077,1.368-0.975,2.539-2.346,2.616c-0.178,0.008-0.355,0-0.533-0.027h-16.565c-1.192,0.204-2.329-0.598-2.536-1.793
		c-0.045-0.263-0.041-0.535,0.013-0.796L434.639,160.866z M602.611,198.594c3.502-4.201,5.376-9.524,5.278-14.992
		c0.023-13.948-11.252-25.279-25.2-25.324h-39.342c-1.254,0.064-2.237,1.104-2.237,2.362v82.534c0,1.302,1.056,2.363,2.361,2.363
		h42.715c13.938,0,25.617-12.22,25.617-26.381C611.75,211.317,608.413,203.861,602.611,198.594z M563.887,175.61h12.61
		c4.719-0.197,8.703,3.471,8.896,8.19c0.005,0.113,0.009,0.227,0.009,0.34c0.062,4.654-3.665,8.474-8.319,8.534
		c-0.258,0.003-0.514-0.005-0.772-0.026h-12.424V175.61z M579.437,228.078h-15.55v-19.607h15.55
		c5.128,0.403,9.067,4.712,9.007,9.855c0.097,5.168-3.906,9.483-9.066,9.775L579.437,228.078z M366.719,159.583l14.661,28.988
		l14.494-28.988c0.396-0.787,1.193-1.289,2.07-1.305h20.048c1.302,0.009,2.35,1.075,2.342,2.379
		c-0.004,0.375-0.098,0.746-0.271,1.079l-27.334,52.552v28.886c0,1.302-1.056,2.363-2.358,2.363h-18.183
		c-1.302,0-2.361-1.062-2.361-2.363l0,0v-28.823l-27.496-52.594c-0.607-1.154-0.163-2.581,0.99-3.188
		c0.336-0.173,0.704-0.266,1.08-0.27h20.108C365.434,158.253,366.299,158.755,366.719,159.583z M706.202,158.278
		c-24.095,0-43.629,19.533-43.629,43.629c0,24.095,19.534,43.63,43.629,43.63c24.097,0,43.63-19.535,43.63-43.63l0,0
		C749.832,177.811,730.299,158.278,706.202,158.278z M706.202,222.839c-11.55,0-20.911-9.36-20.911-20.911
		c0-11.55,9.361-20.913,20.911-20.913s20.913,9.363,20.913,20.913C727.115,213.479,717.752,222.839,706.202,222.839L706.202,222.839
		z"/>
</g>
</svg>
