<svg viewBox="0.5 0 24 24" version="1.1" xmlns="http://www.w3.org/2000/svg" xmlns:xlink="http://www.w3.org/1999/xlink">
	<defs>
		<polygon id="path-1" points="0.00042 -0.00018 23.9976 -0.00018 23.9976 24.02238 0.00042 24.02238"/>
	</defs>
	<g stroke="none" stroke-width="1" fill="none" fill-rule="evenodd">
		<g transform="translate(0.500000, 0.000000)">
			<mask id="mask-2" fill="white">
				<use xlink:href="#path-1"></use>
			</mask>
			<path d="M17.51262,12.66018 C16.80582,12.66018 16.23162,12.08538 16.23162,11.37798 C16.23162,11.19798 16.26882,11.02638 16.33782,10.87278 L16.33602,10.87278 C16.88982,9.66198 15.85122,9.57378 15.85122,9.57378 C15.36282,9.50298 14.95182,9.21138 14.72682,8.79138 C14.27502,7.86498 13.39302,8.50278 13.01382,8.84718 L13.01262,8.84898 C12.97662,8.88198 12.94482,8.91138 12.91902,8.93718 L12.91902,8.92578 C12.57042,9.23598 12.11742,9.42858 11.61462,9.42858 C10.52202,9.42858 9.63582,8.54178 9.63582,7.44738 C9.63582,6.35418 10.52202,5.46798 11.61462,5.46798 C12.36282,5.46798 13.00722,5.88798 13.34262,6.50238 C14.00022,7.78998 14.81922,7.12938 15.09102,6.89778 C15.35742,6.67158 15.69822,6.52878 16.07562,6.52878 C16.92222,6.52878 17.60862,7.21578 17.60862,8.06358 C17.60862,8.37978 17.51622,8.64438 17.34942,8.91738 L17.35122,8.91618 C16.81002,9.93138 17.76162,10.08018 18.01482,10.19778 L18.01302,10.19778 C18.47202,10.39398 18.79242,10.84818 18.79242,11.37798 C18.79242,12.08538 18.22002,12.66018 17.51262,12.66018 M13.12662,18.39978 C12.10602,18.39978 11.22822,17.78658 10.83882,16.90878 L10.83822,16.90998 C10.16082,15.37938 9.23082,16.47678 9.23082,16.47678 L9.23082,16.47258 C8.87382,16.83618 8.37702,17.05878 7.82682,17.05878 C6.73542,17.05878 5.84982,16.17378 5.84982,15.07998 C5.84982,14.65158 5.98782,14.25918 6.21702,13.93578 C6.21522,13.93638 6.21102,13.93698 6.21102,13.93698 C6.53442,13.51938 7.31142,12.65658 6.24282,11.94618 L6.24942,11.94498 C5.92902,11.71158 5.71602,11.33598 5.71602,10.90698 C5.71602,10.20078 6.28902,9.62598 6.99702,9.62598 C7.70382,9.62598 8.27802,10.20078 8.27802,10.90698 C8.27802,11.22678 8.15682,11.51598 7.96302,11.73978 L7.96902,11.73978 C7.96902,11.73978 7.95402,11.75238 7.93302,11.77698 C7.92162,11.78958 7.91202,11.80518 7.89942,11.81838 C7.70502,12.05178 7.24302,12.76338 8.37102,13.17498 C8.89002,13.32018 9.30462,13.65978 9.55842,14.12298 C10.13202,15.27798 10.88322,14.64618 11.17362,14.32998 C11.20362,14.29158 11.23542,14.25618 11.26782,14.22258 C11.28522,14.19678 11.29842,14.17998 11.29842,14.17998 L11.29782,14.18658 C11.75442,13.69758 12.40482,13.38798 13.12662,13.38798 C14.50902,13.38798 15.62802,14.50998 15.62802,15.89418 C15.62802,17.27718 14.50902,18.39978 13.12662,18.39978 M11.99922,-0.00042 C5.37222,-0.00042 0.00042,5.37738 0.00042,12.01158 C0.00042,18.64518 5.37222,24.02238 11.99922,24.02238 C18.62562,24.02238 23.99802,18.64518 23.99802,12.01158 C23.99802,5.37738 18.62562,-0.00042 11.99922,-0.00042" id="Fill-1" fill="currentColor" mask="url(#mask-2)"/>
		</g>
	</g>
</svg>